<svg width="41" height="41" viewBox="0 0 41 41" fill="none" xmlns="http://www.w3.org/2000/svg">
<path d="M7.8925 30.955C9.635 29.6225 11.5825 28.5719 13.735 27.8031C15.8875 27.0344 18.1425 26.65 20.5 26.65C22.8575 26.65 25.1125 27.0344 27.265 27.8031C29.4175 28.5719 31.365 29.6225 33.1075 30.955C34.3033 29.5542 35.2344 27.9654 35.9006 26.1887C36.5669 24.4121 36.9 22.5158 36.9 20.5C36.9 15.9558 35.3027 12.0865 32.1081 8.89188C28.9135 5.69729 25.0442 4.1 20.5 4.1C15.9558 4.1 12.0865 5.69729 8.89188 8.89188C5.69729 12.0865 4.1 15.9558 4.1 20.5C4.1 22.5158 4.43313 24.4121 5.09937 26.1887C5.76562 27.9654 6.69667 29.5542 7.8925 30.955ZM20.5 22.55C18.4842 22.55 16.7844 21.8581 15.4006 20.4744C14.0169 19.0906 13.325 17.3908 13.325 15.375C13.325 13.3592 14.0169 11.6594 15.4006 10.2756C16.7844 8.89188 18.4842 8.2 20.5 8.2C22.5158 8.2 24.2156 8.89188 25.5994 10.2756C26.9831 11.6594 27.675 13.3592 27.675 15.375C27.675 17.3908 26.9831 19.0906 25.5994 20.4744C24.2156 21.8581 22.5158 22.55 20.5 22.55ZM20.5 41C17.6642 41 14.9992 40.4619 12.505 39.3856C10.0108 38.3094 7.84125 36.8488 5.99625 35.0037C4.15125 33.1587 2.69062 30.9892 1.61437 28.495C0.538125 26.0008 0 23.3358 0 20.5C0 17.6642 0.538125 14.9992 1.61437 12.505C2.69062 10.0108 4.15125 7.84125 5.99625 5.99625C7.84125 4.15125 10.0108 2.69062 12.505 1.61437C14.9992 0.538125 17.6642 0 20.5 0C23.3358 0 26.0008 0.538125 28.495 1.61437C30.9892 2.69062 33.1587 4.15125 35.0037 5.99625C36.8488 7.84125 38.3094 10.0108 39.3856 12.505C40.4619 14.9992 41 17.6642 41 20.5C41 23.3358 40.4619 26.0008 39.3856 28.495C38.3094 30.9892 36.8488 33.1587 35.0037 35.0037C33.1587 36.8488 30.9892 38.3094 28.495 39.3856C26.0008 40.4619 23.3358 41 20.5 41ZM20.5 36.9C22.3108 36.9 24.0192 36.6352 25.625 36.1056C27.2308 35.576 28.7 34.8158 30.0325 33.825C28.7 32.8342 27.2308 32.074 25.625 31.5444C24.0192 31.0148 22.3108 30.75 20.5 30.75C18.6892 30.75 16.9808 31.0148 15.375 31.5444C13.7692 32.074 12.3 32.8342 10.9675 33.825C12.3 34.8158 13.7692 35.576 15.375 36.1056C16.9808 36.6352 18.6892 36.9 20.5 36.9ZM20.5 18.45C21.3883 18.45 22.1229 18.1596 22.7038 17.5788C23.2846 16.9979 23.575 16.2633 23.575 15.375C23.575 14.4867 23.2846 13.7521 22.7038 13.1713C22.1229 12.5904 21.3883 12.3 20.5 12.3C19.6117 12.3 18.8771 12.5904 18.2962 13.1713C17.7154 13.7521 17.425 14.4867 17.425 15.375C17.425 16.2633 17.7154 16.9979 18.2962 17.5788C18.8771 18.1596 19.6117 18.45 20.5 18.45Z" fill="#FD8405"/>
</svg>
