<svg width="38" height="38" viewBox="0 0 38 38" fill="none" xmlns="http://www.w3.org/2000/svg">
<path d="M19 19H19.0083" stroke="#323232" stroke-width="1.58333" stroke-linecap="round" stroke-linejoin="round"/>
<path d="M22.1666 14.2497V12.6663C22.1666 12.2464 21.9998 11.8437 21.7028 11.5468C21.4059 11.2498 21.0032 11.083 20.5833 11.083H17.4166C16.9967 11.083 16.5939 11.2498 16.297 11.5468C16.0001 11.8437 15.8333 12.2464 15.8333 12.6663V14.2497" stroke="#323232" stroke-width="1.58333" stroke-linecap="round" stroke-linejoin="round"/>
<path d="M26.9166 19.792C24.5675 21.3429 21.8147 22.1696 18.9999 22.1696C16.1851 22.1696 13.4323 21.3429 11.0833 19.792" stroke="#323232" stroke-width="1.58333" stroke-linecap="round" stroke-linejoin="round"/>
<path d="M25.3333 14.25H12.6666C11.7921 14.25 11.0833 14.9589 11.0833 15.8333V23.75C11.0833 24.6245 11.7921 25.3333 12.6666 25.3333H25.3333C26.2077 25.3333 26.9166 24.6245 26.9166 23.75V15.8333C26.9166 14.9589 26.2077 14.25 25.3333 14.25Z" stroke="#323232" stroke-width="1.58333" stroke-linecap="round" stroke-linejoin="round"/>
</svg>
