<svg width="38" height="38" viewBox="0 0 38 38" fill="none" xmlns="http://www.w3.org/2000/svg">
<path d="M13 25.75H16V20.75C16 20.4667 16.096 20.2293 16.288 20.038C16.48 19.8467 16.7173 19.7507 17 19.75H21C21.2833 19.75 21.521 19.846 21.713 20.038C21.905 20.23 22.0007 20.4673 22 20.75V25.75H25V16.75L19 12.25L13 16.75V25.75ZM11 25.75V16.75C11 16.4333 11.071 16.1333 11.213 15.85C11.355 15.5667 11.5507 15.3333 11.8 15.15L17.8 10.65C18.15 10.3833 18.55 10.25 19 10.25C19.45 10.25 19.85 10.3833 20.2 10.65L26.2 15.15C26.45 15.3333 26.646 15.5667 26.788 15.85C26.93 16.1333 27.0007 16.4333 27 16.75V25.75C27 26.3 26.804 26.771 26.412 27.163C26.02 27.555 25.5493 27.7507 25 27.75H21C20.7167 27.75 20.4793 27.654 20.288 27.462C20.0967 27.27 20.0007 27.0327 20 26.75V21.75H18V26.75C18 27.0333 17.904 27.271 17.712 27.463C17.52 27.655 17.2827 27.7507 17 27.75H13C12.45 27.75 11.9793 27.5543 11.588 27.163C11.1967 26.7717 11.0007 26.3007 11 25.75Z" fill="#242424"/>
</svg>
