<svg width="9" height="12" viewBox="0 0 9 12" fill="none" xmlns="http://www.w3.org/2000/svg">
<g clip-path="url(#clip0_58621_247)">
<path d="M4.53564 11.1136C5.61429 9.76374 8.07438 6.49204 8.07438 4.65433C8.07438 2.42553 6.26611 0.617264 4.03731 0.617264C1.80851 0.617264 0.000244141 2.42553 0.000244141 4.65433C0.000244141 6.49204 2.46033 9.76374 3.53899 11.1136C3.79761 11.4353 4.27701 11.4353 4.53564 11.1136ZM4.03731 6.00002C3.29508 6.00002 2.69162 5.39656 2.69162 4.65433C2.69162 3.9121 3.29508 3.30864 4.03731 3.30864C4.77954 3.30864 5.383 3.9121 5.383 4.65433C5.383 5.39656 4.77954 6.00002 4.03731 6.00002Z" fill="white"/>
</g>
<defs>
<clipPath id="clip0_58621_247">
<rect width="8.07413" height="10.7655" fill="white" transform="translate(0 0.617249)"/>
</clipPath>
</defs>
</svg>
