<svg width="99" height="98" viewBox="0 0 99 98" fill="none" xmlns="http://www.w3.org/2000/svg">
<g opacity="0.45">
<path d="M75.3437 23.987L81.8247 16.8437C82.0585 16.6268 82.2445 16.3635 82.3709 16.0708C82.4973 15.778 82.5614 15.4621 82.559 15.1432C82.5566 14.8243 82.4879 14.5094 82.3571 14.2186C82.2264 13.9277 82.0365 13.6672 81.7996 13.4538C81.5626 13.2403 81.2838 13.0786 80.981 12.9788C80.6781 12.879 80.3577 12.8433 80.0403 12.8741C79.7229 12.9049 79.4154 13.0015 79.1374 13.1577C78.8593 13.3139 78.6168 13.5262 78.4254 13.7812L71.9444 20.8939C64.792 15.2658 55.7728 12.557 46.7031 13.3129C37.6334 14.0688 29.187 18.2334 23.0651 24.9678C16.9431 31.7022 13.6004 40.5062 13.7101 49.6067C13.8199 58.7072 17.3739 67.4281 23.6564 74.013L17.1754 81.1562C16.8309 81.615 16.6706 82.1861 16.726 82.7571C16.7815 83.3282 17.0486 83.8578 17.4748 84.2418C17.901 84.6258 18.4556 84.8363 19.0292 84.8321C19.6029 84.8278 20.1543 84.609 20.5747 84.2187L27.0558 77.0908C34.2089 82.6959 43.2178 85.387 52.2733 84.6236C61.3287 83.8602 69.76 79.6989 75.8738 72.9754C81.9876 66.2519 85.3311 57.4641 85.2328 48.3771C85.1344 39.29 81.6016 30.5767 75.3437 23.987ZM18.1094 49C18.1042 43.1139 19.7555 37.3451 22.8744 32.3532C25.9933 27.3613 30.454 23.3478 35.7465 20.7717C41.0389 18.1956 46.9495 17.1607 52.8024 17.7855C58.6552 18.4103 64.2142 20.6695 68.8436 24.3048L26.7572 70.6021C21.2036 64.7816 18.1064 57.0449 18.1094 49ZM49.5001 80.3906C42.4831 80.3956 35.669 78.037 30.1565 73.6952L72.2429 27.3979C76.4757 31.8453 79.3102 37.4371 80.3951 43.4802C81.48 49.5232 80.7676 55.7518 78.3462 61.3939C75.9248 67.0359 71.9009 71.8433 66.7733 75.2201C61.6456 78.5969 55.6397 80.3947 49.5001 80.3906Z" fill="black"/>
</g>
</svg>
