<svg width="16" height="16" viewBox="0 0 16 16" fill="none" xmlns="http://www.w3.org/2000/svg">
<path d="M8 1.5C8.64258 1.5 9.26237 1.58203 9.85938 1.74609C10.4564 1.91016 11.0124 2.14714 11.5273 2.45703C12.0423 2.76693 12.514 3.13151 12.9424 3.55078C13.3708 3.97005 13.7376 4.44173 14.043 4.96582C14.3483 5.48991 14.583 6.04818 14.7471 6.64062C14.9111 7.23307 14.9954 7.85286 15 8.5C15 9.14258 14.918 9.76237 14.7539 10.3594C14.5898 10.9564 14.3529 11.5124 14.043 12.0273C13.7331 12.5423 13.3685 13.014 12.9492 13.4424C12.5299 13.8708 12.0583 14.2376 11.5342 14.543C11.0101 14.8483 10.4518 15.083 9.85938 15.2471C9.26693 15.4111 8.64714 15.4954 8 15.5C7.35742 15.5 6.73763 15.418 6.14062 15.2539C5.54362 15.0898 4.98763 14.8529 4.47266 14.543C3.95768 14.2331 3.486 13.8685 3.05762 13.4492C2.62923 13.0299 2.26237 12.5583 1.95703 12.0342C1.65169 11.5101 1.41699 10.9518 1.25293 10.3594C1.08887 9.76693 1.00456 9.14714 1 8.5C1 7.85742 1.08203 7.23763 1.24609 6.64062C1.41016 6.04362 1.64714 5.48763 1.95703 4.97266C2.26693 4.45768 2.63151 3.986 3.05078 3.55762C3.47005 3.12923 3.94173 2.76237 4.46582 2.45703C4.98991 2.15169 5.54818 1.91699 6.14062 1.75293C6.73307 1.58887 7.35286 1.50456 8 1.5ZM12.1221 6.18262L11.1924 5.25293L6.6875 9.75781L4.80762 7.87793L3.87793 8.80762L6.6875 11.6172L12.1221 6.18262Z" fill="#5A9C44"/>
</svg>
