<svg width="41" height="41" viewBox="0 0 41 41" fill="none" xmlns="http://www.w3.org/2000/svg">
<path d="M20.5 20.5H20.518" stroke="#FD8405" stroke-width="3.41667" stroke-linecap="round" stroke-linejoin="round"/>
<path d="M27.3337 10.2503V6.83366C27.3337 5.9275 26.9737 5.05846 26.3329 4.41771C25.6922 3.77696 24.8231 3.41699 23.917 3.41699H17.0837C16.1775 3.41699 15.3085 3.77696 14.6677 4.41771C14.027 5.05846 13.667 5.9275 13.667 6.83366V10.2503" stroke="#FD8405" stroke-width="3.41667" stroke-linecap="round" stroke-linejoin="round"/>
<path d="M37.5837 22.208C32.5147 25.5546 26.5744 27.3386 20.5003 27.3386C14.4263 27.3386 8.48597 25.5546 3.41699 22.208" stroke="#FD8405" stroke-width="3.41667" stroke-linecap="round" stroke-linejoin="round"/>
<path d="M34.167 10.25H6.83366C4.94669 10.25 3.41699 11.7797 3.41699 13.6667V30.75C3.41699 32.637 4.94669 34.1667 6.83366 34.1667H34.167C36.054 34.1667 37.5837 32.637 37.5837 30.75V13.6667C37.5837 11.7797 36.054 10.25 34.167 10.25Z" stroke="#FD8405" stroke-width="3.41667" stroke-linecap="round" stroke-linejoin="round"/>
</svg>
